<svg width="20" height="20" viewBox="0 0 20 20" fill="none" xmlns="http://www.w3.org/2000/svg">
<g id="bx:bxs-user-pin">
<path id="Vector" d="M15.8333 1.66667H4.16667C3.72464 1.66667 3.30072 1.84227 2.98816 2.15483C2.67559 2.46739 2.5 2.89131 2.5 3.33334V14.1667C2.5 14.6087 2.67559 15.0326 2.98816 15.3452C3.30072 15.6577 3.72464 15.8333 4.16667 15.8333H7.5L10 18.3333L12.5 15.8333H15.8333C16.2754 15.8333 16.6993 15.6577 17.0118 15.3452C17.3244 15.0326 17.5 14.6087 17.5 14.1667V3.33334C17.5 2.89131 17.3244 2.46739 17.0118 2.15483C16.6993 1.84227 16.2754 1.66667 15.8333 1.66667ZM10 4.16667C11.4392 4.16667 12.5 5.22667 12.5 6.66667C12.5 8.10667 11.4392 9.16667 10 9.16667C8.56167 9.16667 7.5 8.10667 7.5 6.66667C7.5 5.22667 8.56167 4.16667 10 4.16667ZM5.98083 13.3333C6.44583 11.8975 8.06083 10.8333 10 10.8333C11.9392 10.8333 13.555 11.8975 14.0192 13.3333H5.98083Z" fill="#002060"/>
</g>
</svg>
